{"title":"Love Shack.2010.DvDRip.H264.Feel-Free","uid":5984592,"size":807062133,"categoryP":"video","categoryS":"movies","magnet":"?xt=urn:btih:cbf7e0e18f99bc6e95572ab044c61bbc6de28bbf&amp;dn=Love+Shack.2010.DvDRip.H264.Feel-Free&amp;tr=udp%3A%2F%2Ftracker.openbittorrent.com%3A80&amp;tr=udp%3A%2F%2Fopen.demonii.com%3A1337&amp;tr=udp%3A%2F%2Ftracker.coppersurfer.tk%3A6969&amp;tr=udp%3A%2F%2Fexodus.desync.com%3A6969","seeders":0,"leechers":1,"uploader":"neon","files":-1,"time":1290690454,"description":"Genre:Comedy\nLanguage:English\n &lt;a href=&quot; http://www.imdb.com/title/tt1445675/&quot; rel=&quot;nofollow&quot; target=&quot;_NEW&quot;&gt; http://www.imdb.com/title/tt1445675/&lt;/a&gt;\nSource:DVD\n\nGeneral\nComplete name :Love.Shack.2010.DvDRip.H264.Feel-Free\nFormat : MPEG-4\nFormat profile : Base Media / Version 2\nCodec ID : mp42\nFile size : 767 MiB\nDuration : 1h 28mn\nOverall bit rate : 1 212 Kbps\nVideo #1\nCodec ID : avc1\nCodec ID/Info : Advanced Video Coding\nDuration : 1h 28mn\nBit rate mode : Variable\nBit rate : 827 Kbps\nWidth : 720 pixels\nHeight : 384 pixels\nDisplay aspect ratio : 1.875\nFrame rate mode : Constant\nFrame rate : 23.976 fps\nResolution : 24 bits\nColorimetry : 4:2:0\nScan type : Progressive\nBits/(Pixel*Frame) : 0.125\nStream size : 524 MiB (68%)\nAudio #2\nID : 2\nFormat : AAC\nFormat/Info : Advanced Audio Codec\nFormat version : Version 4\nFormat profile : LC\nFormat settings, SBR : No\nCodec ID : 40\nDuration : 1h 28mn\nBit rate mode : Constant\nBit rate : 384 Kbps\nChannel(s) : 6 channels\nChannel positions : Front: L C R, Rear: L R, LFE\nSampling rate : 48.0 KHz\nResolution : 16 bits\nStream size : 241 MiB (31%)\n\nPlot:\nA dysfunctional family of adult film stars reunites for a memorial porn shoot following the death of legendary producer Mo Saltzman. Along the way, the film's hapless director must contend with dueling divas, bickering couples, emotionally-scarred tag-team brothers, and a dominatrix with low self-esteem. Given its all-star cast and lofty pedigree, the film should be the greatest porno of all time\n &lt;a href=&quot;\nhttp://www.rapidhdd.com/images/248711vlcsnap-2010-11-25-13h51m39s55.png&quot; rel=&quot;nofollow&quot; target=&quot;_NEW&quot;&gt;\nhttp://www.rapidhdd.com/images/248711vlcsnap-2010-11-25-13h51m39s55.png&lt;/a&gt; &lt;a href=&quot;\nhttp://www.rapidhdd.com/images/529243vlcsnap-2010-11-25-13h52m17s187.png&quot; rel=&quot;nofollow&quot; target=&quot;_NEW&quot;&gt;\nhttp://www.rapidhdd.com/images/529243vlcsnap-2010-11-25-13h52m17s187.png&lt;/a&gt;\n &lt;a href=&quot;\nhttp://www.youtube.com/watch?v=p-Pb3T2CYhM&amp;feature=player_embedded&quot; rel=&quot;nofollow&quot; target=&quot;_NEW&quot;&gt;\nhttp://www.youtube.com/watch?v=p-Pb3T2CYhM&amp;feature=player_embedded&lt;/a&gt;","torrent":{"xt":"urn:btih:cbf7e0e18f99bc6e95572ab044c61bbc6de28bbf","amp;dn":"Love+Shack.2010.DvDRip.H264.Feel-Free","amp;tr":["udp%3A%2F%2Ftracker.openbittorrent.com%3A80","udp%3A%2F%2Fopen.demonii.com%3A1337","udp%3A%2F%2Ftracker.coppersurfer.tk%3A6969","udp%3A%2F%2Fexodus.desync.com%3A6969"],"infoHash":"cbf7e0e18f99bc6e95572ab044c61bbc6de28bbf","infoHashBuffer":{"type":"Buffer","data":[203,247,224,225,143,153,188,110,149,87,42,176,68,198,27,188,109,226,139,191]},"announce":[],"urlList":[]}}